# xmcd CD database file
#
# Track frame offsets:
#	150
#	28881
#	67184
#	123330
#	161628
#	177104
#	208088
#
# Disc length: 3148 seconds
#
# Revision: 0
# Processed by: cddbd v1.5.2PL0 Copyright (c) Steve Scherf et al.
# Submitted via: CDex 1.51
#
DISCID=640c4a07
DTITLE=Niels Præstholm - Aircondition
DYEAR=2007
DGENRE=Jazz
TTITLE0=Being In The World
TTITLE1=Dreams - Events In
TTITLE2=Sweet Birds Suite
TTITLE3=Dreams - Rooms and Spaces
TTITLE4=Forventningens Glæde
TTITLE5=Kingo Step
TTITLE6=Bajkal
EXTD=YEAR: 2007
EXTT0=
EXTT1=
EXTT2=
EXTT3=
EXTT4=
EXTT5=
EXTT6=
PLAYORDER=
